<svg xmlns="http://www.w3.org/2000/svg" xmlns:xlink="http://www.w3.org/1999/xlink" width="1em" height="1em" preserveAspectRatio="xMidYMid meet" viewBox="0 0 15 15" style="-ms-transform: rotate(360deg); -webkit-transform: rotate(360deg); transform: rotate(360deg);"><path fill="none" stroke="#757575" d="M13.5 5.5h-12m12 0a1 1 0 0 0 1-1v-2a1 1 0 0 0-1-1h-12a1 1 0 0 0-1 1v2a1 1 0 0 0 1 1m12 0a1 1 0 0 1 1 1v2a1 1 0 0 1-1 1m-12-4a1 1 0 0 0-1 1v2a1 1 0 0 0 1 1m12 0h-12m12 0a1 1 0 0 1 1 1v2a1 1 0 0 1-1 1h-12a1 1 0 0 1-1-1v-2a1 1 0 0 1 1-1m.5-6h3m-3 4h3m-3 4h3"/></svg>